<svg width="24" height="24" viewBox="0 0 24 24" fill="none" xmlns="http://www.w3.org/2000/svg">
<path d="M9.18399 21C9.38764 21.5845 9.76815 22.0912 10.2727 22.4498C10.7773 22.8083 11.381 23.0009 12 23.0009C12.619 23.0009 13.2227 22.8083 13.7272 22.4498C14.2318 22.0912 14.6123 21.5845 14.816 21" stroke="#4F3A57" stroke-width="2" stroke-linecap="round" stroke-linejoin="round"/>
<path d="M1 17H23" stroke="#4F3A57" stroke-width="2" stroke-linecap="round" stroke-linejoin="round"/>
<path d="M23 17C21.9624 16.9294 20.9855 16.4853 20.2501 15.7499C19.5147 15.0145 19.0706 14.0376 19 13V8C19 6.14348 18.2625 4.36301 16.9497 3.05025C15.637 1.7375 13.8565 1 12 1V1C10.1435 1 8.36301 1.7375 7.05025 3.05025C5.7375 4.36301 5 6.14348 5 8V13C4.92939 14.0376 4.48529 15.0145 3.7499 15.7499C3.01451 16.4853 2.03761 16.9294 1 17" stroke="#4F3A57" stroke-width="2" stroke-linecap="round" stroke-linejoin="round"/>
</svg>
