<svg width="26" height="19" viewBox="0 0 26 19" fill="none" xmlns="http://www.w3.org/2000/svg">
<path d="M1.31957 10.6407C1.11354 10.3763 1.00114 10.0511 1.00001 9.71595C0.998877 9.38082 1.10908 9.05481 1.31332 8.7891C2.89222 6.71879 7.16097 1.90472 12.7188 1.90472C18.2032 1.90472 22.5125 6.71566 24.1133 8.78754C24.3202 9.05327 24.4326 9.38044 24.4326 9.71722C24.4326 10.054 24.3202 10.3812 24.1133 10.6469C22.5125 12.7188 18.2032 17.5297 12.7188 17.5297C7.23441 17.5297 2.91644 12.7078 1.31957 10.6407Z" stroke="#56CCF2" stroke-width="2" stroke-miterlimit="10" stroke-linecap="round" stroke-linejoin="bevel"/>
<path d="M12.7188 14.4047C15.3076 14.4047 17.4063 12.3061 17.4063 9.71722C17.4063 7.12839 15.3076 5.02972 12.7188 5.02972C10.1299 5.02972 8.03128 7.12839 8.03128 9.71722C8.03128 12.3061 10.1299 14.4047 12.7188 14.4047Z" stroke="#56CCF2" stroke-width="2" stroke-miterlimit="10" stroke-linecap="round" stroke-linejoin="bevel"/>
</svg>
