<svg width="20" height="26" viewBox="0 0 20 26" fill="none" xmlns="http://www.w3.org/2000/svg">
<path d="M18.25 10C18.25 16.75 10 24.25 10 24.25C10 24.25 1.75 16.75 1.75 10C1.75 7.81196 2.61919 5.71354 4.16637 4.16637C5.71354 2.61919 7.81196 1.75 10 1.75C12.188 1.75 14.2865 2.61919 15.8336 4.16637C17.3808 5.71354 18.25 7.81196 18.25 10V10Z" stroke="#4F3A57" stroke-width="2" stroke-linecap="round" stroke-linejoin="round"/>
<path d="M10 13.75C12.0711 13.75 13.75 12.0711 13.75 10C13.75 7.92893 12.0711 6.25 10 6.25C7.92893 6.25 6.25 7.92893 6.25 10C6.25 12.0711 7.92893 13.75 10 13.75Z" stroke="#4F3A57" stroke-width="2" stroke-linecap="round" stroke-linejoin="round"/>
</svg>
