<svg width="31" height="32" viewBox="0 0 31 32" fill="none" xmlns="http://www.w3.org/2000/svg">
<path d="M1.70011 21.9483C1.5708 21.9483 1.31218 21.819 1.18287 21.819C1.05356 21.6897 0.924252 21.3017 1.05356 21.1724L2.86391 16.5172C1.95873 14.9655 1.44149 13.1552 1.44149 11.3448C1.44149 5.65517 6.09667 1 11.7863 1C17.476 1 22.0018 5.65517 22.0018 11.2155C22.0018 16.9052 17.3467 21.431 11.7863 21.431C9.97598 21.431 8.16563 20.9138 6.61391 20.0086L1.95873 21.819C1.82942 21.9483 1.70011 21.9483 1.70011 21.9483ZM6.61391 18.7155C6.74322 18.7155 6.87253 18.7155 7.00184 18.8448C8.42425 19.75 10.1053 20.2672 11.7863 20.2672C16.7001 20.2672 20.7087 16.2586 20.7087 11.3448C20.7087 6.43103 16.7001 2.42241 11.7863 2.42241C6.74322 2.2931 2.7346 6.30172 2.7346 11.3448C2.7346 13.0259 3.25184 14.7069 4.15701 16.1293C4.28632 16.2586 4.28632 16.5172 4.15701 16.7759L2.7346 20.2672L6.22598 18.8448C6.4846 18.7155 6.4846 18.7155 6.61391 18.7155Z" fill="#4F3A57" stroke="#4F3A57"/>
<path d="M23.6829 31C23.4243 31 23.1657 30.8707 23.0364 30.6121L21.8726 27.8965C20.7088 27.6379 19.8036 26.9914 18.8984 26.2155C17.6053 24.9224 16.9588 23.2414 16.9588 21.5603C16.9588 19.75 17.6053 18.069 18.8984 16.9052C20.1915 15.6121 21.8726 14.9655 23.5536 14.9655C25.3639 14.9655 27.045 15.6121 28.2088 16.9052C30.795 19.4914 30.795 23.7586 28.2088 26.3448C27.4329 27.1207 26.3984 27.7672 25.2346 28.0259L24.0708 30.7414C24.2001 30.7414 23.9415 31 23.6829 31ZM23.6829 16C22.2605 16 20.8381 16.5172 19.9329 17.5517C18.7691 18.5862 18.2519 19.8793 18.2519 21.431C18.2519 22.9828 18.7691 24.2759 19.8036 25.181C20.5795 25.9569 21.4846 26.3448 22.3898 26.6034C22.6484 26.6034 22.7777 26.7328 22.907 26.9914L23.5536 28.6724L24.2002 26.9914C24.3295 26.8621 24.4588 26.6034 24.7174 26.6034C25.7519 26.3448 26.657 25.8276 27.3036 25.181C29.3726 23.1121 29.3726 19.6207 27.3036 17.5517C26.3984 16.5172 25.1053 16 23.6829 16Z" fill="#4F3A57" stroke="#4F3A57"/>
</svg>
