<svg width="26" height="26" viewBox="0 0 26 26" fill="none" xmlns="http://www.w3.org/2000/svg">
<path d="M13 16.75C15.8995 16.75 18.25 14.3995 18.25 11.5C18.25 8.60051 15.8995 6.25 13 6.25C10.1005 6.25 7.75 8.60051 7.75 11.5C7.75 14.3995 10.1005 16.75 13 16.75Z" stroke="#4F3A57" stroke-width="2" stroke-linecap="round" stroke-linejoin="round"/>
<path d="M10.75 16.243C10.7317 16.849 10.5246 17.4341 10.1575 17.9166C9.79035 18.3991 9.28165 18.7548 8.70247 18.934L5.30197 20.566C5.15845 20.6263 5.02 20.698 4.88797 20.7805" stroke="#4F3A57" stroke-width="2" stroke-linecap="round" stroke-linejoin="round"/>
<path d="M21.112 20.782C20.98 20.6995 20.8415 20.6278 20.698 20.5675L17.3005 18.9355C16.0525 18.2785 15.253 17.536 15.253 16.2445" stroke="#4F3A57" stroke-width="2" stroke-linecap="round" stroke-linejoin="round"/>
<path d="M13 24.25C19.2132 24.25 24.25 19.2132 24.25 13C24.25 6.7868 19.2132 1.75 13 1.75C6.7868 1.75 1.75 6.7868 1.75 13C1.75 19.2132 6.7868 24.25 13 24.25Z" stroke="#4F3A57" stroke-width="2" stroke-linecap="round" stroke-linejoin="round"/>
</svg>
