<svg width="25" height="24" viewBox="0 0 25 24" fill="none" xmlns="http://www.w3.org/2000/svg">
<path d="M5.16666 12.9792L9.33332 1C9.33332 1 11.9375 1 11.9375 4.125V9.85417H21.3125C21.7102 9.85201 22.1001 9.96432 22.4356 10.1777C22.7712 10.3911 23.0383 10.6965 23.2051 11.0575C23.3719 11.4185 23.4312 11.8199 23.3761 12.2138C23.321 12.6076 23.1537 12.9773 22.8943 13.2786C23.2359 13.479 23.513 13.7731 23.6924 14.1262C23.8718 14.4793 23.9462 14.8765 23.9066 15.2706C23.867 15.6647 23.7151 16.0391 23.469 16.3495C23.2229 16.6598 22.8929 16.893 22.5182 17.0214C22.7031 17.2944 22.8203 17.6077 22.86 17.9351C22.8997 18.2625 22.8608 18.5946 22.7465 18.904C22.6322 19.2134 22.4458 19.491 22.2027 19.714C21.9597 19.9369 21.667 20.0987 21.3489 20.1859C21.575 20.401 21.7313 20.6789 21.7977 20.9838C21.8641 21.2886 21.8375 21.6063 21.7214 21.8959C21.6053 22.1855 21.405 22.4336 21.1464 22.6081C20.8878 22.7827 20.5828 22.8756 20.2708 22.875H11.9375C9.5857 22.9256 7.25847 22.3885 5.16666 21.3125" stroke="#6FCF97" stroke-width="2" stroke-miterlimit="10" stroke-linecap="round" stroke-linejoin="bevel"/>
<path d="M4.125 10.8958H2.04167C1.46637 10.8958 1 11.3622 1 11.9375V21.3125C1 21.8878 1.46637 22.3542 2.04167 22.3542H4.125C4.7003 22.3542 5.16667 21.8878 5.16667 21.3125V11.9375C5.16667 11.3622 4.7003 10.8958 4.125 10.8958Z" stroke="#6FCF97" stroke-width="2" stroke-miterlimit="10" stroke-linecap="round" stroke-linejoin="bevel"/>
</svg>
